<?xml version="1.0" ?><!DOCTYPE svg  PUBLIC '-//W3C//DTD SVG 1.1//EN'  'http://www.w3.org/Graphics/SVG/1.1/DTD/svg11.dtd'><svg enable-background="new 0 0 512 511.996" height="511.996px" id="Layer_1" version="1.1" viewBox="0 0 512 511.996" width="512px" xml:space="preserve" xmlns="http://www.w3.org/2000/svg" xmlns:xlink="http://www.w3.org/1999/xlink"><g><g><path d="M512,256.002v1.818c-0.084,8.205-0.52,16.317-1.302,24.299     c-10.979,108.174-89.337,196.472-192.435,222.242c-10.281,2.565-20.786,4.522-31.502,5.816c-0.521,0.039-0.994,0.139-1.519,0.178     c-9.634,1.086-19.349,1.641-29.244,1.641C114.635,511.996,0,397.366,0,256.002C0,114.638,114.635,0,255.999,0     c133.729,0,243.548,102.573,255,233.352C511.653,240.81,512,248.367,512,256.002z" fill="#89C0C7"/><path d="M512,256.002v1.818c-0.084,8.205-0.52,16.317-1.302,24.299     c-10.979,108.174-89.337,196.472-192.435,222.242c-10.281,2.565-20.786,4.522-31.502,5.816c-0.521,0.039-0.994,0.139-1.519,0.178     c-46.468-46.519-115.852-115.023-115.852-115.023c-45.767-60.578-70.157-194.084-53.844-276.958     c66.645,11.625,97.061-6.125,140.408-45.262l0.043,0.046v-0.046h0.042c43.348,39.137,73.764,56.887,140.412,45.262     c0,0,61.179,60.046,114.546,114.977C511.653,240.81,512,248.367,512,256.002z" opacity="0.17"/><g><path d="M390.898,291.826c-9.661,36.056-25.293,71.426-48.29,103.498l-50.131,21.479l-36.448,15.632l-0.03-0.023      V73.128h0.03c43.355,39.122,73.779,56.888,140.401,45.262C406.638,170.116,406.988,231.927,390.898,291.826z" fill="#102947"/><path d="M255.976,73.128l0.023,0.008v359.276l-0.023,0.008l-86.587-37.096      c-61.226-85.378-70.162-194.076-53.825-276.934C182.188,130.016,212.612,112.25,255.976,73.128z" fill="#3D516B"/></g><g><path d="M377.166,144.392c-5.99,0.517-11.737,0.771-17.315,0.771c-42.666,0-71.387-14.384-103.821-41.241      c-0.008,0.008-0.023,0.016-0.03,0.023c-27.612,22.943-58.321,41.217-103.853,41.217c-5.574,0-11.321-0.254-17.312-0.771      c-4.742,35.517-4.253,72.365,1.51,107.789c0.093,0.531,0.193,1.063,0.281,1.595c38.229,7.542,78.803,11.349,119.373,11.371      c40.577,0.008,81.144-3.774,119.368-11.355c0.096-0.547,0.196-1.079,0.285-1.61C381.415,216.757,381.908,179.9,377.166,144.392z      " fill="#FFFFFF"/><path d="M255.999,261.811c-40.57-0.008-81.145-0.493-119.373-8.035c7.724,46.125,23.853,87.396,48.013,122.773      l71.341,30.578l0.02-0.008l0,0l0.022,0.008l71.337-30.578c24.164-35.377,40.289-76.641,48.009-122.758      C337.143,261.372,296.572,261.826,255.999,261.811z" fill="#E4E5E6"/></g><path d="M390.898,291.826c-9.661,36.056-25.293,71.426-48.29,103.498l-50.131,21.479     l-36.479-36.472c-25.825-25.824-48.791-48.799-48.791-48.799c-3.582-1.171-6.159-4.537-6.159-8.497v-69.831     c0-0.069-0.008-0.139-0.008-0.208c0-5.27,4.264-9.545,9.519-9.545h1.567v-23.66c0-5.963,1.175-11.756,3.479-17.211     c2.23-5.27,5.42-10,9.48-14.06c4.056-4.053,8.79-7.25,14.063-9.477c5.339-2.265,11.017-3.443,16.85-3.475h0.361     c5.956,0,11.745,1.163,17.188,3.459c5.266,2.234,9.984,5.408,14.037,9.461c1.452,1.456,98.439,98.475,99.63,99.9     c1.028,0.862,2.026,1.764,2.974,2.719C390.437,291.356,390.667,291.588,390.898,291.826z" fill="#0D2038" opacity="0.15"/><path d="M311.457,252.997c0-5.27-4.257-9.537-9.519-9.537h-0.023h-1.398v-23.737     c0-5.963-1.171-11.749-3.471-17.188c-2.226-5.262-5.408-9.984-9.46-14.037c-4.057-4.061-8.775-7.234-14.037-9.469     c-5.443-2.296-11.229-3.459-17.185-3.459c-0.02,0-0.03,0-0.042,0c-5.959,0-11.737,1.163-17.181,3.475     c-5.266,2.227-10,5.408-14.056,9.477c-4.064,4.06-7.25,8.79-9.48,14.06c-2.312,5.455-3.479,11.248-3.479,17.211v23.668h-1.533     h-0.034c-5.259,0-9.519,4.268-9.519,9.537c0,0.069,0.008,0.139,0.008,0.208v69.831c0,4.946,4.01,8.952,8.96,8.952h92.496     c4.942,0,8.952-4.006,8.952-8.952V252.997L311.457,252.997L311.457,252.997z M256.322,189.354h0.161     c17.115,0,31.041,13.929,31.041,31.032v23.074h-62.4v-23.074c0-17.104,13.922-31.032,31.036-31.032H256.322z" fill="#E85100"/><path d="M264.947,271.741c0-4.414-3.575-7.996-7.985-7.996c-4.415,0-7.993,3.582-7.993,7.996     c0,3.036,1.706,5.693,4.214,7.034v14.014h7.558v-14.014C263.244,277.435,264.947,274.785,264.947,271.741z" fill="#EEF2F2"/><path d="M250.097,271.741c0-4.214,3.278-7.673,7.428-7.966c-0.186-0.016-0.374-0.03-0.563-0.03     c-4.415,0-7.993,3.582-7.993,7.996c0,3.036,1.706,5.693,4.214,7.034v14.014h1.125v-14.014     C251.804,277.435,250.097,274.777,250.097,271.741z" fill="#C9CCCC"/></g></g></svg>